<svg width="118" height="114" viewBox="0 0 118 114" fill="none" xmlns="http://www.w3.org/2000/svg">
<path d="M14.5 68.5L7 29.5L12.5 28L30 53.5L30.5 20L36 19L48.5 51L56 16.5H61.5L68.5 51L81.5 19L87 20L88 53.5L105 27.5L110.5 29.5L103 68.5L93.5 81V85.5L97.5 91V95.5L98.5 100.5V103.5L59 112L18.5 103.5V100.5L20.5 95.5V91L24.5 85.5V81L14.5 68.5Z" stroke="black" stroke-width="2"/>
<circle cx="32" cy="11" r="7" stroke="black" stroke-width="2"/>
<circle cx="59" cy="8" r="7" stroke="black" stroke-width="2"/>
<circle cx="86" cy="11" r="7" stroke="black" stroke-width="2"/>
<circle cx="110" cy="21" r="7" stroke="black" stroke-width="2"/>
<circle cx="8" cy="21" r="7" stroke="black" stroke-width="2"/>
</svg>
