<svg width="112" height="113" viewBox="0 0 112 113" fill="white" xmlns="http://www.w3.org/2000/svg">
<path d="M63 108.5C61.1609 107.306 59.7346 106.859 56.5 106.5C52.7667 106.761 50.6872 107.213 47 108.5H17.5C14.6936 108.809 12.7624 109.36 9 110.5C5.10151 109.486 3.45945 108.491 2 105.5C5.79659 100.809 9.03163 98.6193 18 96H40.5C43.6688 95.3715 44.6333 94.8978 46 94C38.5817 92.9058 35.4917 91.8005 31.5 89C30.0109 85.0491 29.8668 82.7429 30.5 78.5C32.0969 73.9667 33.1873 71.9048 35.5 69C31.2582 65.3083 29.3666 62.8364 26.5 58C25.7987 52.7166 25.7835 49.8617 26.5 45C35.0284 27.7626 40.1692 24.0571 49.5 20C46.2013 16.5815 45.4843 14.6164 46 11C47.5999 4.5653 49.9536 2.4119 57.5 2C62.1784 2.19679 64.239 4.2455 67 11C67.102 14.4758 66.3999 16.4435 63 20C74.7739 25.3815 79.7088 30.6697 85 45C85.2216 49.5585 85.218 52.3699 85 58C82.2045 63.4504 80.4619 65.8748 76.5 69C79.2799 72.1977 80.654 74.207 82.5 78.5C82.8948 82.3561 82.9094 84.5687 81 89C75.9535 91.8953 72.7705 93.1002 66 94C67.6001 95.1642 69.0543 95.7022 72.5 96.5H98C105.098 99.6665 107.346 101.972 110 106.5C108.49 108.508 107.052 109.529 102.5 111C99.6304 109.125 97.8429 108.562 95 108.5H63Z" stroke="black" stroke-width="3"/>
</svg>
