<svg width="107" height="108" viewBox="0 0 107 108" fill="none" xmlns="http://www.w3.org/2000/svg">
<path d="M105.312 106.5H29.8125C29.5895 99.3873 30.1753 95.5422 32.8125 89L49.3125 71.5C53.6004 64.0344 54.4515 59.9988 53.8125 53C45.3991 61.2644 40.9988 65.3134 34.8125 69.5C30.5551 72.6086 27.9827 74.987 22.8125 81C18.0628 80.8222 16.8282 80.0165 15.8125 78C12.4879 78.464 10.6355 78.4238 7.31246 78C4.43982 75.5239 3.45224 74.0938 2.31246 71.5C0.882245 67.8531 0.742917 65.6448 1.31246 61.5L26.3125 15.5C24.192 9.60814 23.9637 6.75841 26.3125 3C31.7156 3.42397 33.9914 5.11072 36.8125 10.5H41.8125C44.1048 5.33791 46.0801 3.32545 51.3125 2C54.9981 4.62314 55.9566 6.78662 56.3125 11.5C73.2684 14.7968 81.6169 21.1266 95.3125 37C101.528 51.5209 103.378 60.442 105.312 77V106.5Z" stroke="black" stroke-width="2"/>
</svg>
